<svg width="38" height="38" viewBox="0 0 38 38" fill="none" xmlns="http://www.w3.org/2000/svg">
<g filter="url(#filter0_d)">
<path d="M4.5 2.28577H10.2857C14.4278 2.28577 17.7857 5.64363 17.7857 9.78577V13.7858H12C7.85787 13.7858 4.5 10.4279 4.5 6.28577V2.28577Z" stroke="#DAA520"/>
<path d="M20.2143 16.2142H26C30.1421 16.2142 33.5 19.5721 33.5 23.7142V27.7142H27.7143C23.5722 27.7142 20.2143 24.3564 20.2143 20.2142V16.2142Z" stroke="#DAA520"/>
<path d="M20.2143 8C20.2143 3.85787 23.5722 0.5 27.7143 0.5H31.7143V6.28571C31.7143 10.4278 28.3564 13.7857 24.2143 13.7857H20.2143V8Z" stroke="#DAA520"/>
<path d="M6.28571 23.7142C6.28571 19.5721 9.64357 16.2142 13.7857 16.2142H17.7857V21.9999C17.7857 26.1421 14.4278 29.4999 10.2857 29.4999H6.28571V23.7142Z" stroke="#DAA520"/>
</g>
<defs>
<filter id="filter0_d" x="0" y="0" width="38" height="37.9999" filterUnits="userSpaceOnUse" color-interpolation-filters="sRGB">
<feFlood flood-opacity="0" result="BackgroundImageFix"/>
<feColorMatrix in="SourceAlpha" type="matrix" values="0 0 0 0 0 0 0 0 0 0 0 0 0 0 0 0 0 0 127 0"/>
<feOffset dy="4"/>
<feGaussianBlur stdDeviation="2"/>
<feColorMatrix type="matrix" values="0 0 0 0 0 0 0 0 0 0 0 0 0 0 0 0 0 0 0.25 0"/>
<feBlend mode="normal" in2="BackgroundImageFix" result="effect1_dropShadow"/>
<feBlend mode="normal" in="SourceGraphic" in2="effect1_dropShadow" result="shape"/>
</filter>
</defs>
</svg>
